<svg width="72" height="71" viewBox="0 0 72 71" fill="none" xmlns="http://www.w3.org/2000/svg">
<circle cx="35.9998" cy="35.5995" r="35.2225" fill="#D9D9D9"/>
<circle cx="35.9998" cy="35.5995" r="35.2225" fill="url(#paint0_linear_1578_14167)"/>
<path d="M39.5835 46.3C39.5835 46.0834 39.4975 45.8757 39.3443 45.7225C39.1912 45.5694 38.9835 45.4833 38.7669 45.4833C38.5503 45.4833 38.3425 45.5694 38.1894 45.7225C38.0362 45.8757 37.9502 46.0834 37.9502 46.3V47.9333H39.5835V46.3Z" fill="white"/>
<path d="M47.4159 28.4673C47.1429 29.3074 46.7022 30.0835 46.1205 30.7483C45.5388 31.4131 44.8281 31.9529 44.0316 32.335C43.9005 32.4006 43.7542 32.4297 43.608 32.4193C43.4618 32.4089 43.3211 32.3593 43.2007 32.2758C43.0802 32.1923 42.9845 32.0779 42.9235 31.9446C42.8625 31.8113 42.8385 31.6641 42.854 31.5183C43.9336 20.7383 37.4934 15.9445 31.655 13.8171C32.5403 15.8189 33.0146 17.9781 33.0499 20.1667C33.0499 25.6228 29.2369 28.3162 25.5488 30.9213C21.6084 33.7054 17.5332 36.5817 17.5332 43.0333C17.553 45.2354 18.0392 47.4082 18.9596 49.4088C19.8801 51.4093 21.214 53.1921 22.8734 54.6398C21.5431 52.4084 20.8279 49.8643 20.8007 47.2667C20.7734 44.669 21.435 42.1105 22.7182 39.8516C24.0013 37.5928 25.8602 35.7144 28.1054 34.4076C30.3506 33.1008 32.902 32.4124 35.4999 32.4124C38.0977 32.4124 40.6491 33.1008 42.8944 34.4076C45.1396 35.7144 46.9984 37.5928 48.2816 39.8516C49.5647 42.1105 50.2263 44.669 50.1991 47.2667C50.1718 49.8643 49.4566 52.4084 48.1264 54.6398C49.7857 53.1921 51.1196 51.4093 52.04 49.4087C52.9605 47.4082 53.4467 45.2354 53.4665 43.0333C53.4665 36.549 49.4428 30.9009 47.4159 28.4673Z" fill="white"/>
<path d="M35.5 59.3667C37.9904 59.3703 40.4582 58.8939 42.7684 57.9636C45.0963 56.4043 46.8613 54.1378 47.803 51.4989C48.7447 48.8599 48.8131 45.9881 47.9982 43.3072C47.1833 40.6264 45.5282 38.2785 43.2771 36.61C41.0261 34.9415 38.2983 34.0408 35.4964 34.0408C32.6944 34.0408 29.9666 34.9415 27.7156 36.61C25.4645 38.2785 23.8094 40.6264 22.9945 43.3072C22.1796 45.9881 22.248 48.8599 23.1897 51.4989C24.1314 54.1378 25.8964 56.4043 28.2243 57.9636C30.5368 58.8948 33.0071 59.3712 35.5 59.3667ZM42.85 44.6667C42.85 44.4501 42.9361 44.2424 43.0892 44.0892C43.2424 43.936 43.4501 43.85 43.6667 43.85C43.8833 43.85 44.091 43.936 44.2442 44.0892C44.3973 44.2424 44.4834 44.4501 44.4834 44.6667V50.3833H45.3C45.5166 50.3833 45.7243 50.4694 45.8775 50.6225C46.0307 50.7757 46.1167 50.9834 46.1167 51.2C46.1167 51.4166 46.0307 51.6243 45.8775 51.7775C45.7243 51.9306 45.5166 52.0167 45.3 52.0167H43.6667C43.4501 52.0167 43.2424 51.9306 43.0892 51.7775C42.9361 51.6243 42.85 51.4166 42.85 51.2V44.6667ZM36.3167 46.3C36.3167 45.6502 36.5748 45.0271 37.0343 44.5676C37.4937 44.1081 38.1169 43.85 38.7667 43.85C39.4165 43.85 40.0396 44.1081 40.4991 44.5676C40.9586 45.0271 41.2167 45.6502 41.2167 46.3V51.2C41.2167 51.4166 41.1307 51.6243 40.9775 51.7775C40.8243 51.9306 40.6166 52.0167 40.4 52.0167C40.1834 52.0167 39.9757 51.9306 39.8226 51.7775C39.6694 51.6243 39.5834 51.4166 39.5834 51.2V49.5667H37.95V51.2C37.95 51.4166 37.864 51.6243 37.7108 51.7775C37.5577 51.9306 37.35 52.0167 37.1334 52.0167C36.9168 52.0167 36.709 51.9306 36.5559 51.7775C36.4027 51.6243 36.3167 51.4166 36.3167 51.2V46.3ZM29.7834 46.3C29.7834 45.6502 30.0415 45.0271 30.501 44.5676C30.9604 44.1081 31.5836 43.85 32.2334 43.85C32.8831 43.85 33.5063 44.1081 33.9658 44.5676C34.4252 45.0271 34.6834 45.6502 34.6834 46.3C34.6834 46.5166 34.5973 46.7243 34.4442 46.8775C34.291 47.0306 34.0833 47.1167 33.8667 47.1167C33.6501 47.1167 33.4424 47.0306 33.2892 46.8775C33.1361 46.7243 33.05 46.5166 33.05 46.3C33.05 46.0834 32.964 45.8757 32.8108 45.7225C32.6577 45.5694 32.45 45.4833 32.2334 45.4833C32.0168 45.4833 31.809 45.5694 31.6559 45.7225C31.5027 45.8757 31.4167 46.0834 31.4167 46.3V49.5667C31.4167 49.7833 31.5027 49.991 31.6559 50.1441C31.809 50.2973 32.0168 50.3833 32.2334 50.3833C32.45 50.3833 32.6577 50.2973 32.8108 50.1441C32.964 49.991 33.05 49.7833 33.05 49.5667C33.05 49.3501 33.1361 49.1424 33.2892 48.9892C33.4424 48.836 33.6501 48.75 33.8667 48.75C34.0833 48.75 34.291 48.836 34.4442 48.9892C34.5973 49.1424 34.6834 49.3501 34.6834 49.5667C34.6834 50.2164 34.4252 50.8396 33.9658 51.2991C33.5063 51.7585 32.8831 52.0167 32.2334 52.0167C31.5836 52.0167 30.9604 51.7585 30.501 51.2991C30.0415 50.8396 29.7834 50.2164 29.7834 49.5667V46.3ZM27.4967 51.69L26.5167 50.3833V51.2C26.5167 51.4166 26.4307 51.6243 26.2775 51.7775C26.1243 51.9306 25.9166 52.0167 25.7 52.0167C25.4834 52.0167 25.2757 51.9306 25.1226 51.7775C24.9694 51.6243 24.8834 51.4166 24.8834 51.2V44.6667C24.8834 44.4501 24.9694 44.2424 25.1226 44.0892C25.2757 43.936 25.4834 43.85 25.7 43.85C25.9166 43.85 26.1243 43.936 26.2775 44.0892C26.4307 44.2424 26.5167 44.4501 26.5167 44.6667V45.4833L27.4967 44.1767C27.561 44.0909 27.6417 44.0186 27.7339 43.9639C27.8262 43.9093 27.9284 43.8734 28.0345 43.8582C28.1407 43.843 28.2488 43.8489 28.3527 43.8756C28.4566 43.9022 28.5542 43.949 28.64 44.0133C28.7258 44.0777 28.7981 44.1583 28.8527 44.2506C28.9074 44.3429 28.9433 44.445 28.9585 44.5512C28.9737 44.6573 28.9678 44.7655 28.9411 44.8693C28.9145 44.9732 28.8677 45.0709 28.8034 45.1567L26.7209 47.9333L28.8034 50.71C28.9333 50.8833 28.9891 51.1011 28.9585 51.3155C28.9279 51.5299 28.8133 51.7234 28.64 51.8533C28.4668 51.9833 28.249 52.0391 28.0345 52.0085C27.8201 51.9778 27.6267 51.8633 27.4967 51.69Z" fill="white"/>
<defs>
<linearGradient id="paint0_linear_1578_14167" x1="0.777344" y1="35.5995" x2="71.2223" y2="35.5995" gradientUnits="userSpaceOnUse">
<stop stop-color="#99D052"/>
<stop offset="1" stop-color="#458900"/>
</linearGradient>
</defs>
</svg>
