<svg width="72" height="71" viewBox="0 0 72 71" fill="none" xmlns="http://www.w3.org/2000/svg">
<circle cx="35.9998" cy="35.5995" r="35.2225" fill="#D9D9D9"/>
<circle cx="35.9998" cy="35.5995" r="35.2225" fill="url(#paint0_linear_1578_13603)"/>
<path d="M35.6555 55.8565V50.4007C31.4788 46.8247 26.5012 44.309 21.1449 43.067C21.1372 43.2289 21.1311 43.3907 21.1277 43.5524C21.0286 48.2748 22.7085 52.5261 25.9881 55.8565H35.6555Z" fill="white"/>
<path d="M26.1329 30.557C26.1264 30.5669 26.1194 30.5764 26.1119 30.5855C24.9109 32.0598 23.8954 33.6759 23.0884 35.3976C27.2671 36.7038 31.6194 37.3703 35.9975 37.375H36.0475C40.4254 37.3754 44.7782 36.7138 48.9582 35.4127C48.1307 33.6723 47.0726 32.0511 45.8124 30.593C45.8069 30.5867 45.8016 30.58 45.7965 30.5732C43.17 27.0282 42.5912 22.3668 44.271 18.2871L44.801 17H27.0896L27.5962 18.4358C29.0248 22.4833 28.4838 26.9656 26.1331 30.557H26.1329ZM36.0001 30.7054C36.5878 30.7053 37.0641 31.1817 37.0642 31.7694C37.0643 32.357 36.5879 32.8334 36.0003 32.8335C35.4126 32.8336 34.9363 32.3572 34.9362 31.7695V31.7695C34.9369 31.1821 35.4128 30.7061 36.0001 30.7054Z" fill="white"/>
<path d="M50.8635 43.0743C45.5089 44.3244 40.5309 46.8365 36.3442 50.401V55.8566H45.9296C49.1803 52.5671 50.9635 48.1036 50.8742 43.4798C50.8722 43.3446 50.8687 43.2095 50.8635 43.0743Z" fill="white"/>
<path d="M36.0472 38.0635H35.9964C31.5212 38.0587 27.0727 37.373 22.8038 36.0298C21.9299 38.0435 21.3853 40.1845 21.1909 42.371C26.6513 43.6184 31.7311 46.1625 36.0005 49.7882C40.2809 46.1728 45.3629 43.6318 50.8235 42.3767C50.6544 40.1925 50.1206 38.0521 49.2441 36.0445C44.973 37.3831 40.5231 38.0638 36.0472 38.0635Z" fill="white"/>
<path d="M35.9999 32.1449C36.2073 32.1449 36.3753 31.9768 36.3753 31.7695C36.3753 31.5621 36.2073 31.394 35.9999 31.394C35.7926 31.394 35.6245 31.5621 35.6245 31.7695C35.6245 31.9768 35.7926 32.1449 35.9999 32.1449Z" fill="white"/>
<path d="M19.3153 37.1268C19.1351 37.0662 18.9399 37.1631 18.8793 37.3433C17.423 41.6742 17.4191 46.0475 18.868 49.9905C18.9336 50.169 19.1315 50.2605 19.31 50.1949C19.4885 50.1294 19.5799 49.9315 19.5144 49.753C18.1201 45.9588 18.1261 41.7435 19.5316 37.5628C19.5922 37.3826 19.4953 37.1875 19.3153 37.1268Z" fill="white"/>
<path d="M19.9698 35.8414C20.1059 35.8415 20.2293 35.7616 20.2847 35.6373C20.5092 35.1343 20.7572 34.6303 21.0219 34.1393C21.1121 33.9719 21.0497 33.763 20.8823 33.6727C20.7149 33.5824 20.5061 33.6449 20.4157 33.8122C20.143 34.3182 19.8873 34.8378 19.656 35.3564C19.5784 35.53 19.6563 35.7336 19.8299 35.8111C19.874 35.8308 19.9218 35.8409 19.9701 35.841L19.9698 35.8414Z" fill="white"/>
<path d="M56.6557 23.62H50.9006L52.1007 22.2413C52.2255 22.0978 52.2104 21.8804 52.067 21.7555C51.9235 21.6307 51.7061 21.6458 51.5813 21.7893L49.8849 23.7382C49.7721 23.8678 49.7721 24.0606 49.8849 24.1902L51.5813 26.1392C51.7061 26.2827 51.9236 26.2977 52.067 26.1728C52.2104 26.048 52.2255 25.8306 52.1007 25.6872L50.9006 24.3085H56.6557C56.8458 24.3085 57 24.1543 57 23.9642C57 23.7741 56.8458 23.62 56.6557 23.62Z" fill="white"/>
<path d="M19.8993 25.6873C19.7745 25.8308 19.7895 26.0482 19.933 26.173C20.0765 26.2978 20.2939 26.2827 20.4188 26.1393L22.1152 24.1904C22.228 24.0607 22.228 23.868 22.1152 23.7383L20.4187 21.7893C20.2939 21.6458 20.0764 21.6308 19.933 21.7557C19.7895 21.8804 19.7745 22.0979 19.8993 22.2413L21.0994 23.62H15.3443C15.1541 23.62 15 23.7742 15 23.9643C15 24.1544 15.1541 24.3085 15.3443 24.3085H21.0994L19.8993 25.6873Z" fill="white"/>
<defs>
<linearGradient id="paint0_linear_1578_13603" x1="0.777344" y1="35.5995" x2="71.2223" y2="35.5995" gradientUnits="userSpaceOnUse">
<stop stop-color="#99D052"/>
<stop offset="1" stop-color="#458900"/>
</linearGradient>
</defs>
</svg>
