<svg width="72" height="71" viewBox="0 0 72 71" fill="none" xmlns="http://www.w3.org/2000/svg">
<circle cx="35.9998" cy="35.5995" r="35.2225" fill="#D9D9D9"/>
<circle cx="35.9998" cy="35.5995" r="35.2225" fill="url(#paint0_linear_1581_16963)"/>
<g clip-path="url(#clip0_1581_16963)">
<path d="M35.5009 50.2344C34.2184 50.237 32.9597 49.8883 31.8613 49.2261C30.7629 48.564 29.8668 47.6137 29.2702 46.4784C28.1988 46.9302 27.0323 47.1098 25.8747 47.0013C24.717 46.8928 23.6042 46.4996 22.6354 45.8566C21.6667 45.2137 20.872 44.341 20.3224 43.3164C19.7727 42.2918 19.4852 41.1471 19.4853 39.9844C19.4853 39.8313 19.4917 39.6743 19.5045 39.5084C18.1626 38.9896 17.0117 38.0722 16.2069 36.8796C15.402 35.687 14.9818 34.2765 15.0027 32.8379C15.0236 31.3993 15.4847 30.0016 16.3239 28.833C17.1632 27.6643 18.3402 26.7808 19.6967 26.3013C19.5571 25.7481 19.4861 25.1799 19.4853 24.6094C19.4834 23.4188 19.7837 22.2471 20.3581 21.2042C20.9324 20.1613 21.762 19.2812 22.7692 18.6463C23.7764 18.0113 24.9283 17.6424 26.1169 17.574C27.3056 17.5055 28.4921 17.7399 29.5655 18.255C30.2016 17.2574 31.0789 16.4362 32.1163 15.8673C33.1537 15.2984 34.3178 15.0002 35.5009 15.0002C36.6841 15.0002 37.8481 15.2984 38.8855 15.8673C39.923 16.4362 40.8002 17.2574 41.4363 18.255C42.6404 17.6766 43.9842 17.4529 45.3107 17.6102C46.6373 17.7675 47.8915 18.2993 48.9269 19.1434C49.9622 19.9874 50.7359 21.1088 51.1573 22.3764C51.5786 23.644 51.6304 25.0054 51.3064 26.3013C52.6629 26.7808 53.84 27.6643 54.6792 28.833C55.5184 30.0016 55.9795 31.3993 56.0004 32.8379C56.0214 34.2765 55.6011 35.687 54.7963 36.8796C53.9914 38.0722 52.8406 38.9896 51.4986 39.5084C51.5114 39.6743 51.5178 39.8287 51.5178 39.9844C51.5181 41.1473 51.2305 42.2921 50.6808 43.3169C50.1311 44.3416 49.3363 45.2144 48.3673 45.8574C47.3984 46.5004 46.2854 46.8936 45.1275 47.002C43.9697 47.1103 42.8031 46.9304 41.7316 46.4784C41.1351 47.6137 40.239 48.564 39.1406 49.2261C38.0422 49.8883 36.7834 50.237 35.5009 50.2344ZM29.5764 44.9813C29.7034 44.9813 29.8276 45.019 29.9331 45.0897C30.0386 45.1605 30.1207 45.2609 30.169 45.3784C30.6038 46.4351 31.3427 47.3388 32.2921 47.9747C33.2414 48.6107 34.3583 48.9502 35.5009 48.9502C36.6436 48.9502 37.7604 48.6107 38.7098 47.9747C39.6591 47.3388 40.3981 46.4351 40.8328 45.3784C40.867 45.2954 40.9182 45.2204 40.9831 45.1584C41.0481 45.0964 41.1254 45.0488 41.21 45.0186C41.2945 44.9884 41.3845 44.9763 41.474 44.9831C41.5636 44.9899 41.6507 45.0155 41.7297 45.0581C42.6684 45.5762 43.7335 45.8208 44.8042 45.7642C45.8748 45.7077 46.9082 45.3522 47.7871 44.7382C48.666 44.1241 49.3552 43.2761 49.7766 42.2902C50.198 41.3044 50.3347 40.2201 50.1712 39.1605C50.1493 39.0089 50.1825 38.8544 50.2648 38.7251C50.3471 38.5958 50.473 38.5002 50.6197 38.4558C51.8279 38.0924 52.8833 37.3423 53.624 36.3209C54.3646 35.2994 54.7494 34.0631 54.7194 32.8018C54.6893 31.5404 54.2461 30.3239 53.4576 29.3388C52.6692 28.3538 51.5792 27.6549 50.3551 27.3493C50.2688 27.3276 50.188 27.2882 50.1177 27.2335C50.0475 27.1788 49.9895 27.1101 49.9473 27.0318C49.9051 26.9534 49.8797 26.8671 49.8727 26.7784C49.8657 26.6897 49.8773 26.6005 49.9067 26.5165C50.301 25.3999 50.3412 24.1888 50.0219 23.0484C49.7026 21.908 49.0393 20.8939 48.1225 20.1444C47.2056 19.3948 46.0799 18.9464 44.8988 18.8601C43.7177 18.7739 42.5388 19.0541 41.5228 19.6625C41.4477 19.7072 41.3643 19.7361 41.2777 19.7473C41.1911 19.7586 41.103 19.752 41.019 19.728C40.935 19.704 40.8568 19.6631 40.7892 19.6078C40.7216 19.5524 40.666 19.4838 40.6259 19.4062C40.1421 18.4648 39.4081 17.675 38.5047 17.1235C37.6012 16.5721 36.5632 16.2803 35.5048 16.2803C34.4463 16.2803 33.4083 16.5721 32.5049 17.1235C31.6014 17.675 30.8674 18.4648 30.3836 19.4062C30.3435 19.4838 30.2879 19.5524 30.2203 19.6078C30.1527 19.6631 30.0745 19.704 29.9905 19.728C29.9065 19.752 29.8185 19.7586 29.7318 19.7473C29.6452 19.7361 29.5618 19.7072 29.4867 19.6625C28.4708 19.0525 27.2913 18.7711 26.1094 18.8567C24.9276 18.9424 23.801 19.3908 22.8836 20.1408C21.9662 20.8908 21.3027 21.9058 20.9839 23.0471C20.665 24.1884 20.7064 25.4003 21.1022 26.5172C21.1316 26.6012 21.1432 26.6904 21.1362 26.7791C21.1292 26.8678 21.1038 26.9541 21.0616 27.0324C21.0194 27.1108 20.9614 27.1795 20.8911 27.2341C20.8209 27.2888 20.7401 27.3283 20.6538 27.35C19.4291 27.6545 18.3383 28.3527 17.549 29.3373C16.7596 30.3219 16.3154 31.5385 16.2846 32.8C16.2537 34.0616 16.6379 35.2984 17.3782 36.3204C18.1185 37.3424 19.1739 38.0931 20.3822 38.4571C20.5289 38.5015 20.6548 38.597 20.737 38.7263C20.8193 38.8556 20.8525 39.0101 20.8306 39.1618C20.6771 40.2185 20.8202 41.2972 21.2441 42.2772C21.668 43.2573 22.3559 44.1003 23.2311 44.7121C24.1063 45.3239 25.1343 45.6804 26.2004 45.7419C27.2664 45.8033 28.3286 45.5672 29.2683 45.0601C29.3628 45.0085 29.4687 44.9814 29.5764 44.9813Z" fill="white"/>
<path d="M17.5625 56C17.0557 56 16.5603 55.8497 16.1389 55.5681C15.7175 55.2866 15.389 54.8864 15.1951 54.4181C15.0011 53.9499 14.9504 53.4347 15.0492 52.9376C15.1481 52.4405 15.3922 51.9839 15.7505 51.6255C16.1089 51.2672 16.5655 51.0231 17.0626 50.9242C17.5597 50.8254 18.0749 50.8761 18.5431 51.0701C19.0114 51.264 19.4116 51.5925 19.6931 52.0139C19.9747 52.4353 20.125 52.9307 20.125 53.4375C20.125 54.1171 19.855 54.7689 19.3745 55.2495C18.8939 55.73 18.2421 56 17.5625 56ZM17.5625 52.1563C17.3091 52.1563 17.0614 52.2314 16.8507 52.3722C16.64 52.513 16.4758 52.7131 16.3788 52.9472C16.2818 53.1813 16.2564 53.4389 16.3059 53.6875C16.3553 53.936 16.4773 54.1643 16.6565 54.3435C16.8357 54.5227 17.064 54.6447 17.3125 54.6941C17.5611 54.7436 17.8187 54.7182 18.0528 54.6212C18.2869 54.5242 18.487 54.36 18.6278 54.1493C18.7686 53.9386 18.8438 53.6909 18.8438 53.4375C18.8438 53.0977 18.7088 52.7718 18.4685 52.5315C18.2282 52.2912 17.9023 52.1563 17.5625 52.1563Z" fill="white"/>
<path d="M23.9688 53.4375C23.4619 53.4375 22.9665 53.2872 22.5451 53.0056C22.1237 52.7241 21.7953 52.3239 21.6013 51.8556C21.4074 51.3874 21.3566 50.8722 21.4555 50.3751C21.5544 49.878 21.7984 49.4214 22.1568 49.063C22.5152 48.7047 22.9718 48.4606 23.4688 48.3617C23.9659 48.2629 24.4811 48.3136 24.9494 48.5076C25.4176 48.7015 25.8178 49.03 26.0994 49.4514C26.381 49.8728 26.5313 50.3682 26.5313 50.875C26.5313 51.5546 26.2613 52.2064 25.7807 52.687C25.3002 53.1675 24.6484 53.4375 23.9688 53.4375ZM23.9688 49.5938C23.7153 49.5938 23.4676 49.6689 23.2569 49.8097C23.0462 49.9505 22.882 50.1506 22.785 50.3847C22.6881 50.6188 22.6627 50.8764 22.7121 51.125C22.7616 51.3735 22.8836 51.6018 23.0628 51.781C23.242 51.9602 23.4703 52.0822 23.7188 52.1316C23.9673 52.1811 24.2249 52.1557 24.4591 52.0587C24.6932 51.9617 24.8933 51.7975 25.0341 51.5868C25.1749 51.3761 25.25 51.1284 25.25 50.875C25.25 50.5352 25.115 50.2093 24.8747 49.969C24.6345 49.7287 24.3086 49.5938 23.9688 49.5938Z" fill="white"/>
<path d="M29.3699 42.9165C28.9221 42.9165 28.4843 42.7836 28.1119 42.5348C27.7396 42.286 27.4493 41.9324 27.2779 41.5187C27.1065 41.105 27.0616 40.6497 27.1489 40.2104C27.2362 39.7712 27.4518 39.3677 27.7684 39.0509L32.5442 34.2751C32.6644 34.155 32.8273 34.0875 32.9971 34.0875C33.167 34.0875 33.3299 34.155 33.4501 34.2751L35.7461 36.5711C35.8662 36.6912 35.9336 36.8541 35.9336 37.024C35.9336 37.1939 35.8662 37.3568 35.7461 37.4769L30.9702 42.2528C30.7606 42.4638 30.5113 42.6311 30.2366 42.745C29.9619 42.8589 29.6673 42.9172 29.3699 42.9165ZM33.001 35.6339L28.678 39.9568C28.4941 40.1414 28.3908 40.3913 28.3908 40.6519C28.3908 40.9124 28.4941 41.1624 28.678 41.3469C28.8653 41.5258 29.1142 41.6255 29.3731 41.6255C29.632 41.6255 29.881 41.5258 30.0682 41.3469L34.3911 37.024L33.001 35.6339Z" fill="white"/>
<path d="M37.5914 35.3718C37.4215 35.3718 37.2586 35.3043 37.1385 35.1841L34.8419 32.8881C34.7218 32.768 34.6543 32.6051 34.6543 32.4352C34.6543 32.2653 34.7218 32.1024 34.8419 31.9823L35.1622 31.662C35.8195 31.0009 36.1896 30.1073 36.1923 29.1751C36.1902 28.5443 36.3133 27.9194 36.5544 27.3366C36.7956 26.7538 37.15 26.2246 37.5972 25.7798L41.2423 22.1352C41.3909 21.9862 41.5855 21.8917 41.7945 21.8671C42.0035 21.8425 42.2147 21.8893 42.3937 21.9998C42.5728 22.1104 42.7093 22.2782 42.781 22.476C42.8527 22.6739 42.8555 22.8902 42.7888 23.0898L41.9477 25.6113L44.3705 24.4005C44.5457 24.3136 44.7437 24.2839 44.9366 24.3155C45.1296 24.3472 45.3077 24.4385 45.446 24.5768C45.5843 24.7151 45.6756 24.8932 45.7073 25.0862C45.7389 25.2791 45.7092 25.4771 45.6223 25.6523L44.4109 28.0751L46.933 27.2359C47.1326 27.1688 47.349 27.1713 47.5471 27.2428C47.7451 27.3144 47.9131 27.4508 48.0237 27.63C48.1344 27.8092 48.1811 28.0205 48.1564 28.2296C48.1317 28.4387 48.0369 28.6333 47.8875 28.7817L44.243 32.425C43.7983 32.8723 43.2691 33.2269 42.6863 33.4681C42.1035 33.7094 41.4785 33.8326 40.8477 33.8305C40.3864 33.8296 39.9295 33.92 39.5033 34.0966C39.0771 34.2732 38.6901 34.5324 38.3647 34.8593L38.0443 35.1796C37.9852 35.24 37.9148 35.288 37.8371 35.321C37.7593 35.3539 37.6759 35.3712 37.5914 35.3718ZM36.1981 32.4326L37.594 33.8279C38.4786 33.0051 39.6428 32.5492 40.8509 32.5524C41.3129 32.5536 41.7704 32.4631 42.1972 32.2863C42.6239 32.1095 43.0114 31.8498 43.3372 31.5223L45.9426 28.9163L43.3494 29.7792C43.2292 29.8192 43.0999 29.8227 42.9778 29.7893C42.8556 29.7559 42.7461 29.687 42.6631 29.5914C42.5801 29.4957 42.5273 29.3776 42.5113 29.252C42.4954 29.1264 42.517 28.9988 42.5736 28.8855L44.0098 26.0123L41.1379 27.4492C41.0245 27.5067 40.8965 27.5292 40.7703 27.5137C40.644 27.4983 40.5253 27.4456 40.4291 27.3624C40.3329 27.2792 40.2636 27.1692 40.2302 27.0465C40.1967 26.9238 40.2005 26.794 40.2411 26.6734L41.1053 24.0815L38.503 26.685C38.1756 27.0109 37.916 27.3985 37.7393 27.8253C37.5626 28.2522 37.4723 28.7099 37.4736 29.1719C37.4769 30.3802 37.021 31.5447 36.1981 32.4294V32.4326Z" fill="white"/>
<path d="M41.2189 42.9165C40.9213 42.9174 40.6265 42.8593 40.3516 42.7453C40.0766 42.6314 39.8271 42.464 39.6174 42.2528L31.4859 34.1213C29.6569 34.3962 27.4826 33.5621 25.8414 31.9208C23.3756 29.455 22.8612 25.9591 24.6934 24.127C26.5256 22.2948 30.0227 22.8105 32.4891 25.275C34.1291 26.9156 34.9664 29.0892 34.689 30.9195L42.8198 39.051C43.1364 39.3677 43.352 39.7712 43.4393 40.2104C43.5266 40.6497 43.4817 41.105 43.3103 41.5187C43.1389 41.9324 42.8486 42.286 42.4763 42.5348C42.1039 42.7836 41.6661 42.9165 41.2183 42.9165H41.2189ZM31.698 32.7869C31.8679 32.787 32.0308 32.8545 32.1509 32.9746L40.5238 41.347C40.7112 41.5255 40.9601 41.625 41.2189 41.625C41.4777 41.625 41.7266 41.5255 41.914 41.347C42.0978 41.1623 42.201 40.9124 42.201 40.6519C42.201 40.3914 42.0978 40.1414 41.914 39.9568L33.541 31.5845C33.4635 31.5069 33.4072 31.4108 33.3775 31.3052C33.3477 31.1997 33.3456 31.0883 33.3713 30.9816C33.7255 29.5082 33.0234 27.6228 31.582 26.1808C29.6153 24.2154 26.933 23.6997 25.5992 25.0328C24.2654 26.3659 24.7818 29.0495 26.7472 31.0156C28.1893 32.457 30.0727 33.1617 31.5519 32.8049C31.5997 32.7931 31.6487 32.7871 31.698 32.7869Z" fill="white"/>
<path d="M31.0159 32.2968C29.7347 32.2968 27.1536 31.66 26.5508 29.2487C26.5141 29.0855 26.5426 28.9143 26.6305 28.7719C26.7183 28.6295 26.8584 28.527 27.0207 28.4865C27.1831 28.446 27.3548 28.4706 27.4993 28.5551C27.6437 28.6396 27.7493 28.7773 27.7936 28.9387C28.3035 30.9765 30.907 31.0156 31.0159 31.0156C31.1858 31.0156 31.3488 31.0831 31.4689 31.2032C31.5891 31.3234 31.6566 31.4863 31.6566 31.6562C31.6566 31.8261 31.5891 31.9891 31.4689 32.1092C31.3488 32.2293 31.1858 32.2968 31.0159 32.2968Z" fill="white"/>
</g>
<defs>
<linearGradient id="paint0_linear_1581_16963" x1="0.777344" y1="35.5995" x2="71.2223" y2="35.5995" gradientUnits="userSpaceOnUse">
<stop stop-color="#99D052"/>
<stop offset="1" stop-color="#458900"/>
</linearGradient>
<clipPath id="clip0_1581_16963">
<rect width="41" height="41" fill="white" transform="translate(15 15)"/>
</clipPath>
</defs>
</svg>
