<svg width="72" height="71" viewBox="0 0 72 71" fill="none" xmlns="http://www.w3.org/2000/svg">
<circle cx="35.9999" cy="35.5995" r="35.2225" fill="#D9D9D9"/>
<circle cx="35.9999" cy="35.5995" r="35.2225" fill="url(#paint0_linear_1562_14910)"/>
<path d="M42.6093 31.6719V34.9531H49.1718V31.6719H51.9061L45.8905 23.4688L39.8749 31.6719H42.6093Z" fill="white"/>
<path d="M46.6211 36.0469C45.0512 36.0448 43.5344 36.6157 42.3555 37.6525C43.2342 38.4303 43.8085 39.4945 43.9764 40.6559L44.2444 42.5317L43.1616 42.687L42.8936 40.8107C42.8169 40.2767 42.6293 39.7647 42.3429 39.3075C42.0565 38.8503 41.6776 38.4582 41.2306 38.1562L40.2648 37.6722C39.5663 37.3233 38.7963 37.1414 38.0155 37.1406C36.8698 37.1356 35.7534 37.5023 34.8338 38.1857L34.2618 38.615L33.2194 40.1785L32.3094 39.5715L33.3124 38.0703V36.5451C33.3116 34.7876 33.1664 33.0331 32.8782 31.2995C32.8032 30.8492 32.7655 30.3936 32.7655 29.9372C32.7702 28.8856 33.1592 27.8721 33.8593 27.0874V27.065C33.3722 26.8524 32.9576 26.5025 32.6662 26.0581C32.3749 25.6136 32.2193 25.0939 32.2186 24.5625H33.3124C33.3124 24.9976 33.4852 25.4149 33.7929 25.7226C34.1006 26.0303 34.5179 26.2031 34.953 26.2031H36.5936V27.2969H34.953V28.9375C34.953 29.0825 35.0106 29.2216 35.1132 29.3242C35.2157 29.4268 35.3548 29.4844 35.4999 29.4844H36.5936C36.8837 29.4844 37.1619 29.3691 37.367 29.164C37.5721 28.9589 37.6874 28.6807 37.6874 28.3906V24.5625C37.6874 24.4175 37.6298 24.2784 37.5272 24.1758C37.4246 24.0732 37.2855 24.0156 37.1405 24.0156V22.9219C37.5756 22.9219 37.9929 23.0947 38.3006 23.4024C38.6083 23.7101 38.7811 24.1274 38.7811 24.5625V27.8438C39.0712 27.8438 39.3494 27.7285 39.5545 27.5234C39.7596 27.3183 39.8749 27.0401 39.8749 26.75V23.4688C39.8749 23.3237 39.8173 23.1846 39.7147 23.0821C39.6121 22.9795 39.473 22.9219 39.328 22.9219V21.8281H33.2736C32.7039 21.8288 32.1578 22.0555 31.755 22.4583C31.3522 22.8611 31.1256 23.4072 31.1249 23.9768C31.1284 25.2751 30.8744 26.5612 30.3775 27.7607C29.8807 28.9602 29.1508 30.0492 28.2303 30.9648L27.171 32.158C25.9297 33.5658 25.0196 35.2338 24.5077 37.0395L24.6718 36.8169C24.725 36.7512 24.7923 36.6982 24.8686 36.6618C24.945 36.6254 25.0285 36.6066 25.1131 36.6066C25.1977 36.6066 25.2812 36.6254 25.3575 36.6618C25.4339 36.6982 25.5011 36.7512 25.5544 36.8169L31.57 45.02C31.6301 45.1018 31.6662 45.1987 31.6744 45.2998C31.6826 45.401 31.6624 45.5024 31.6162 45.5927C31.57 45.6831 31.4996 45.7588 31.4128 45.8114C31.3261 45.864 31.2264 45.8914 31.1249 45.8906H28.9374V47.336C29.5975 47.5887 30.2308 47.9065 30.8279 48.2848C33.9089 50.2457 37.475 51.3099 41.1267 51.3582C44.7784 51.4065 48.3714 50.437 51.5031 48.5583L51.9061 48.3155V38.4909L50.7807 37.553C49.6126 36.5806 48.141 36.0478 46.6211 36.0469Z" fill="white"/>
<path d="M25.1093 38.0654L20.1732 44.7969H21.8281C21.9731 44.7969 22.1122 44.8545 22.2148 44.957C22.3173 45.0596 22.3749 45.1987 22.3749 45.3437V51.9062H27.8437V45.3437C27.8437 45.1987 27.9013 45.0596 28.0039 44.957C28.1064 44.8545 28.2455 44.7969 28.3906 44.7969H30.0454L25.1093 38.0654Z" fill="white"/>
<path d="M40.9686 23.4688V26.0511C41.1344 25.9559 41.2721 25.8187 41.3681 25.6534C41.4641 25.4881 41.5149 25.3005 41.5155 25.1094V22.9219C41.5155 22.6318 41.4003 22.3536 41.1952 22.1485C40.99 21.9434 40.7118 21.8281 40.4218 21.8281H39.328C39.7631 21.8281 40.1804 22.001 40.4881 22.3087C40.7958 22.6163 40.9686 23.0336 40.9686 23.4688Z" fill="white"/>
<path d="M22.3749 28.9375C23.281 28.9375 24.0155 28.203 24.0155 27.2969C24.0155 26.3908 23.281 25.6562 22.3749 25.6562C21.4688 25.6562 20.7343 26.3908 20.7343 27.2969C20.7343 28.203 21.4688 28.9375 22.3749 28.9375Z" fill="white"/>
<path d="M26.7499 23.4688C26.9196 22.9593 27.2057 22.4964 27.5854 22.1167C27.965 21.737 28.4279 21.451 28.9374 21.2812C28.4279 21.1115 27.965 20.8255 27.5854 20.4458C27.2057 20.0661 26.9196 19.6032 26.7499 19.0938C26.5801 19.6032 26.2941 20.0661 25.9144 20.4458C25.5347 20.8255 25.0718 21.1115 24.5624 21.2812C25.0718 21.451 25.5347 21.737 25.9144 22.1167C26.2941 22.4964 26.5801 22.9593 26.7499 23.4688Z" fill="white"/>
<defs>
<linearGradient id="paint0_linear_1562_14910" x1="0.777466" y1="35.5995" x2="71.2224" y2="35.5995" gradientUnits="userSpaceOnUse">
<stop stop-color="#99D052"/>
<stop offset="1" stop-color="#458900"/>
</linearGradient>
</defs>
</svg>
