<svg width="72" height="71" viewBox="0 0 72 71" fill="none" xmlns="http://www.w3.org/2000/svg">
<circle cx="35.9998" cy="35.5995" r="35.2225" fill="#D9D9D9"/>
<circle cx="35.9998" cy="35.5995" r="35.2225" fill="url(#paint0_linear_1581_16238)"/>
<path d="M40.3986 28.5401C40.1807 28.3659 39.9052 28.2801 39.627 28.2995H35.388L39.3464 23.8802L39.7172 23.4693L39.9577 23.1787C40.0237 23.0857 40.0776 22.9846 40.118 22.878C40.1635 22.7632 40.1872 22.6408 40.1882 22.5173C40.2161 22.225 40.0713 21.9432 39.8174 21.7958C39.488 21.6451 39.1269 21.5763 38.7652 21.5953H33.7946C33.5321 21.5774 33.272 21.6558 33.0631 21.8158C32.8905 21.9627 32.7944 22.1804 32.8025 22.407C32.8025 22.7478 32.9128 22.9482 33.1433 23.0284C33.4689 23.1206 33.8072 23.1611 34.1454 23.1486H37.3522C37.2185 23.3356 37.0415 23.5561 36.8211 23.81L35.9893 24.752L34.907 25.9546L33.6143 27.3876C33.1633 27.8887 32.8727 28.2294 32.7324 28.3897C32.4142 28.7762 32.4538 29.344 32.8226 29.6825C33.0879 29.8971 33.424 30.0044 33.7646 29.9831H39.617C39.8969 30.005 40.1753 29.923 40.3986 29.7526C40.5689 29.6039 40.6643 29.3873 40.6592 29.1614C40.6678 28.926 40.5725 28.6988 40.3986 28.5401Z" fill="white"/>
<path d="M49.2373 33.5807C49.0619 33.4404 48.8398 33.3723 48.616 33.3903H45.2488L48.4055 29.8628L48.7062 29.5321L48.8966 29.3016C48.95 29.2273 48.9939 29.1465 49.0268 29.0611C49.0643 28.9686 49.0847 28.8702 49.087 28.7705C49.1121 28.5366 48.9985 28.3095 48.7963 28.1892C48.5329 28.0682 48.244 28.0131 47.9546 28.0289H44.0262C43.8172 28.0172 43.6107 28.0812 43.445 28.2093C43.3065 28.3258 43.2289 28.4994 43.2346 28.6803C43.2346 28.9508 43.3247 29.1112 43.5051 29.1813C43.7653 29.2575 44.036 29.2914 44.3068 29.2815H46.8322C46.7219 29.4319 46.5817 29.6022 46.4113 29.8127L45.7499 30.5643L44.8881 31.5664L43.8859 32.7088C43.5252 33.1097 43.288 33.3836 43.1744 33.5305C42.9383 33.8334 42.9686 34.2656 43.2446 34.5327C43.4521 34.6774 43.7039 34.7447 43.9561 34.7231H48.626C48.8482 34.7409 49.0692 34.6767 49.2473 34.5427C49.3798 34.4226 49.453 34.2505 49.4477 34.0717C49.4524 33.8853 49.3756 33.706 49.2373 33.5807Z" fill="white"/>
<path d="M59.7386 27.9789C59.5206 27.8047 59.2452 27.7189 58.967 27.7384H54.738L58.6964 23.319L59.0572 22.868L59.2977 22.5774C59.3634 22.4842 59.4173 22.3833 59.458 22.2768C59.5035 22.1619 59.5272 22.0395 59.5282 21.916C59.5561 21.6238 59.4113 21.3419 59.1574 21.1945C58.8154 21.0256 58.4361 20.9463 58.055 20.964H53.1446C52.8821 20.9461 52.622 21.0245 52.4131 21.1845C52.2405 21.3314 52.1444 21.5491 52.1525 21.7757C52.1525 22.1164 52.2628 22.3169 52.4933 22.397C52.8189 22.4891 53.1572 22.5297 53.4954 22.5173H56.7022C56.5685 22.7043 56.3949 22.9248 56.1811 23.1787L55.3493 24.1207L54.267 25.3232L52.9743 26.7563C52.5233 27.2573 52.2327 27.5981 52.0924 27.7584C51.9617 27.9169 51.8876 28.1143 51.882 28.3196C51.8686 28.5959 51.9788 28.864 52.1826 29.0511C52.4469 29.2503 52.7746 29.3464 53.1045 29.3217H58.957C59.2369 29.3436 59.5153 29.2616 59.7386 29.0912C59.9088 28.9425 60.0043 28.726 59.9992 28.5C59.9807 28.2997 59.8878 28.1137 59.7386 27.9789Z" fill="white"/>
<path d="M55.9847 44.6326C55.7279 44.5111 55.4316 44.5044 55.1695 44.614H55.1795C44.3166 49.1072 31.8681 43.9435 27.375 33.0806C25.096 27.5708 25.2326 21.3576 27.7514 15.9533C27.988 15.453 27.7742 14.8556 27.2739 14.619C27.0171 14.4975 26.7207 14.4908 26.4586 14.6004C14.5508 19.492 8.86285 33.1107 13.7543 45.0185C18.6458 56.9264 32.2645 62.6143 44.1725 57.7228C49.6035 55.4919 53.9925 51.2936 56.4624 45.9669C56.6989 45.4666 56.485 44.8692 55.9847 44.6326Z" fill="white"/>
<defs>
<linearGradient id="paint0_linear_1581_16238" x1="0.777344" y1="35.5995" x2="71.2223" y2="35.5995" gradientUnits="userSpaceOnUse">
<stop stop-color="#99D052"/>
<stop offset="1" stop-color="#458900"/>
</linearGradient>
</defs>
</svg>
