<svg width="72" height="71" viewBox="0 0 72 71" fill="none" xmlns="http://www.w3.org/2000/svg">
<circle cx="35.9998" cy="35.5995" r="35.2225" fill="#D9D9D9"/>
<circle cx="35.9998" cy="35.5995" r="35.2225" fill="url(#paint0_linear_1581_17470)"/>
<path d="M50.0777 17.3816C49.858 17.1388 49.5481 17 49.2198 17H23.7822C23.4562 17 23.144 17.1388 22.9243 17.3816C22.7069 17.6221 22.5982 17.9458 22.6306 18.2719L26.0994 52.9594C26.1595 53.5514 26.6567 54 27.251 54H45.751C46.3453 54 46.8425 53.5514 46.9003 52.9594L50.3691 18.2719C50.4038 17.9458 50.2974 17.6221 50.0777 17.3816ZM46.9998 28.7429C44.0606 29.6933 40.2357 30.1327 37.2341 27.6699C33.4716 24.5827 28.8605 25.1146 25.734 26.0442L25.0611 19.3125H47.9409L46.9998 28.7429Z" fill="white"/>
<defs>
<linearGradient id="paint0_linear_1581_17470" x1="0.777344" y1="35.5995" x2="71.2223" y2="35.5995" gradientUnits="userSpaceOnUse">
<stop stop-color="#99D052"/>
<stop offset="1" stop-color="#458900"/>
</linearGradient>
</defs>
</svg>
